# xmcd
#
# Track frame offsets:
#	150
#	12422
#	24595
#	38235
#	46202
#	56247
#	67982
#	80200
#	90920
#	105587
#	125445
#	136095
#	146917
#	158892
#	171522
#	182137
#	193210
#	205347
#	215652
#	226310
#
# Disc length: 3168 seconds
#
# Revision: 2
# Processed by: cddbd v1.5.2PL0 Copyright (c) Steve Scherf et al.
# Submitted via: audiograbber 1.83.01
#
DISCID=260c5e14
DTITLE=Chuck Berry - The Best Of Chuck Berry
DYEAR=1994
DGENRE=Rock
TTITLE0=No Particular Place to Go
TTITLE1=School Day (Ring, Ring Goes The Bell)
TTITLE2=Sweet Little Sixteen
TTITLE3=Let It Rock
TTITLE4=Memphis Tennessee
TTITLE5=Nadine (Is It You)
TTITLE6=You Never Can Tell
TTITLE7=Promised Land
TTITLE8=Reelin' and Rockin'
TTITLE9=My Ding a Ling
TTITLE10=Maybelline
TTITLE11=Roll Over Beethoven
TTITLE12=Johny B. Good
TTITLE13=Carol
TTITLE14=Almost Grown
TTITLE15=Back In USA
TTITLE16=Little Queenie
TTITLE17=Brown Eyed Handsome Man
TTITLE18=Sweet Little Rock And Roller
TTITLE19=Rock and Roll Music
EXTD=
EXTT0=
EXTT1=
EXTT2=
EXTT3=
EXTT4=
EXTT5=
EXTT6=
EXTT7=
EXTT8=
EXTT9=
EXTT10=
EXTT11=
EXTT12=
EXTT13=
EXTT14=
EXTT15=
EXTT16=
EXTT17=
EXTT18=
EXTT19=
PLAYORDER=
